<svg xmlns="http://www.w3.org/2000/svg" xmlns:xlink="http://www.w3.org/1999/xlink" width="117.874" height="5.486" viewBox="0 0 117.874 5.486">
  <defs>
    <clipPath id="clip-path">
      <rect width="117.874" height="5.486" fill="none"/>
    </clipPath>
  </defs>
  <g id="Group_74" data-name="Group 74" transform="translate(-901 -1003.257)">
    <g id="Repeat_Grid_1" data-name="Repeat Grid 1" transform="translate(901 1003.257)" clip-path="url(#clip-path)">
      <g transform="translate(-912.063 -808.257)">
        <line id="Line_2" data-name="Line 2" x1="5" y2="9" transform="translate(912.5 808.5)" fill="none" stroke="#7cbf4a" stroke-width="1"/>
      </g>
      <g transform="translate(-908.063 -808.257)">
        <line id="Line_2-2" data-name="Line 2" x1="5" y2="9" transform="translate(912.5 808.5)" fill="none" stroke="#7cbf4a" stroke-width="1"/>
      </g>
      <g transform="translate(-904.063 -808.257)">
        <line id="Line_2-3" data-name="Line 2" x1="5" y2="9" transform="translate(912.5 808.5)" fill="none" stroke="#7cbf4a" stroke-width="1"/>
      </g>
      <g transform="translate(-900.063 -808.257)">
        <line id="Line_2-4" data-name="Line 2" x1="5" y2="9" transform="translate(912.5 808.5)" fill="none" stroke="#7cbf4a" stroke-width="1"/>
      </g>
      <g transform="translate(-896.063 -808.257)">
        <line id="Line_2-5" data-name="Line 2" x1="5" y2="9" transform="translate(912.5 808.5)" fill="none" stroke="#7cbf4a" stroke-width="1"/>
      </g>
      <g transform="translate(-892.063 -808.257)">
        <line id="Line_2-6" data-name="Line 2" x1="5" y2="9" transform="translate(912.5 808.5)" fill="none" stroke="#7cbf4a" stroke-width="1"/>
      </g>
      <g transform="translate(-888.063 -808.257)">
        <line id="Line_2-7" data-name="Line 2" x1="5" y2="9" transform="translate(912.5 808.5)" fill="none" stroke="#7cbf4a" stroke-width="1"/>
      </g>
      <g transform="translate(-884.063 -808.257)">
        <line id="Line_2-8" data-name="Line 2" x1="5" y2="9" transform="translate(912.5 808.5)" fill="none" stroke="#7cbf4a" stroke-width="1"/>
      </g>
      <g transform="translate(-880.063 -808.257)">
        <line id="Line_2-9" data-name="Line 2" x1="5" y2="9" transform="translate(912.5 808.5)" fill="none" stroke="#7cbf4a" stroke-width="1"/>
      </g>
      <g transform="translate(-876.063 -808.257)">
        <line id="Line_2-10" data-name="Line 2" x1="5" y2="9" transform="translate(912.5 808.5)" fill="none" stroke="#7cbf4a" stroke-width="1"/>
      </g>
      <g transform="translate(-872.063 -808.257)">
        <line id="Line_2-11" data-name="Line 2" x1="5" y2="9" transform="translate(912.5 808.5)" fill="none" stroke="#7cbf4a" stroke-width="1"/>
      </g>
      <g transform="translate(-868.063 -808.257)">
        <line id="Line_2-12" data-name="Line 2" x1="5" y2="9" transform="translate(912.5 808.5)" fill="none" stroke="#7cbf4a" stroke-width="1"/>
      </g>
      <g transform="translate(-864.063 -808.257)">
        <line id="Line_2-13" data-name="Line 2" x1="5" y2="9" transform="translate(912.5 808.5)" fill="none" stroke="#7cbf4a" stroke-width="1"/>
      </g>
      <g transform="translate(-860.063 -808.257)">
        <line id="Line_2-14" data-name="Line 2" x1="5" y2="9" transform="translate(912.5 808.5)" fill="none" stroke="#7cbf4a" stroke-width="1"/>
      </g>
      <g transform="translate(-856.063 -808.257)">
        <line id="Line_2-15" data-name="Line 2" x1="5" y2="9" transform="translate(912.5 808.5)" fill="none" stroke="#7cbf4a" stroke-width="1"/>
      </g>
      <g transform="translate(-852.063 -808.257)">
        <line id="Line_2-16" data-name="Line 2" x1="5" y2="9" transform="translate(912.5 808.5)" fill="none" stroke="#7cbf4a" stroke-width="1"/>
      </g>
      <g transform="translate(-848.063 -808.257)">
        <line id="Line_2-17" data-name="Line 2" x1="5" y2="9" transform="translate(912.5 808.5)" fill="none" stroke="#7cbf4a" stroke-width="1"/>
      </g>
      <g transform="translate(-844.063 -808.257)">
        <line id="Line_2-18" data-name="Line 2" x1="5" y2="9" transform="translate(912.5 808.5)" fill="none" stroke="#7cbf4a" stroke-width="1"/>
      </g>
      <g transform="translate(-840.063 -808.257)">
        <line id="Line_2-19" data-name="Line 2" x1="5" y2="9" transform="translate(912.5 808.5)" fill="none" stroke="#7cbf4a" stroke-width="1"/>
      </g>
      <g transform="translate(-836.063 -808.257)">
        <line id="Line_2-20" data-name="Line 2" x1="5" y2="9" transform="translate(912.5 808.5)" fill="none" stroke="#7cbf4a" stroke-width="1"/>
      </g>
      <g transform="translate(-832.063 -808.257)">
        <line id="Line_2-21" data-name="Line 2" x1="5" y2="9" transform="translate(912.5 808.5)" fill="none" stroke="#7cbf4a" stroke-width="1"/>
      </g>
      <g transform="translate(-828.063 -808.257)">
        <line id="Line_2-22" data-name="Line 2" x1="5" y2="9" transform="translate(912.5 808.5)" fill="none" stroke="#7cbf4a" stroke-width="1"/>
      </g>
      <g transform="translate(-824.063 -808.257)">
        <line id="Line_2-23" data-name="Line 2" x1="5" y2="9" transform="translate(912.5 808.5)" fill="none" stroke="#7cbf4a" stroke-width="1"/>
      </g>
      <g transform="translate(-820.063 -808.257)">
        <line id="Line_2-24" data-name="Line 2" x1="5" y2="9" transform="translate(912.5 808.5)" fill="none" stroke="#7cbf4a" stroke-width="1"/>
      </g>
      <g transform="translate(-816.063 -808.257)">
        <line id="Line_2-25" data-name="Line 2" x1="5" y2="9" transform="translate(912.5 808.5)" fill="none" stroke="#7cbf4a" stroke-width="1"/>
      </g>
      <g transform="translate(-812.063 -808.257)">
        <line id="Line_2-26" data-name="Line 2" x1="5" y2="9" transform="translate(912.5 808.5)" fill="none" stroke="#7cbf4a" stroke-width="1"/>
      </g>
      <g transform="translate(-808.063 -808.257)">
        <line id="Line_2-27" data-name="Line 2" x1="5" y2="9" transform="translate(912.5 808.5)" fill="none" stroke="#7cbf4a" stroke-width="1"/>
      </g>
      <g transform="translate(-804.063 -808.257)">
        <line id="Line_2-28" data-name="Line 2" x1="5" y2="9" transform="translate(912.5 808.5)" fill="none" stroke="#7cbf4a" stroke-width="1"/>
      </g>
      <g transform="translate(-800.063 -808.257)">
        <line id="Line_2-29" data-name="Line 2" x1="5" y2="9" transform="translate(912.5 808.5)" fill="none" stroke="#7cbf4a" stroke-width="1"/>
      </g>
      <g transform="translate(-796.063 -808.257)">
        <line id="Line_2-30" data-name="Line 2" x1="5" y2="9" transform="translate(912.5 808.5)" fill="none" stroke="#7cbf4a" stroke-width="1"/>
      </g>
    </g>
  </g>
</svg>
